<?xml version="1.0" standalone="no"?>
<!DOCTYPE svg PUBLIC "-//W3C//DTD SVG 20010904//EN"
 "http://www.w3.org/TR/2001/REC-SVG-20010904/DTD/svg10.dtd">
<svg version="1.0" xmlns="http://www.w3.org/2000/svg"
 width="64.000000pt" height="64.000000pt" viewBox="0 0 64.000000 64.000000"
 preserveAspectRatio="xMidYMid meet">

<g transform="translate(0.000000,64.000000) scale(0.100000,-0.100000)"
fill="#ffffff" stroke="none">
<path d="M196 588 c-60 -16 -130 -91 -145 -156 -7 -28 -10 -56 -6 -62 8 -13
541 -14 549 -1 4 5 1 33 -5 62 -15 70 -83 140 -151 157 -56 14 -188 14 -242 0z
m259 -51 c44 -23 84 -68 91 -105 l7 -32 -233 0 -232 0 6 32 c10 52 66 102 131
119 48 13 197 4 230 -14z"/>
<path d="M320 490 c0 -13 7 -20 20 -20 13 0 20 7 20 20 0 13 -7 20 -20 20 -13
0 -20 -7 -20 -20z"/>
<path d="M190 470 c0 -13 7 -20 20 -20 13 0 20 7 20 20 0 13 -7 20 -20 20 -13
0 -20 -7 -20 -20z"/>
<path d="M430 450 c0 -13 7 -20 20 -20 13 0 20 7 20 20 0 13 -7 20 -20 20 -13
0 -20 -7 -20 -20z"/>
<path d="M20 320 c-25 -25 -25 -51 -1 -81 l19 -24 282 0 282 0 19 24 c24 30
24 56 -1 81 -19 19 -33 20 -300 20 -267 0 -281 -1 -300 -20z m575 -30 c4 -6 1
-17 -5 -25 -18 -22 -522 -22 -540 0 -6 8 -9 19 -5 25 9 14 541 14 550 0z"/>
<path d="M42 134 c8 -91 1 -89 278 -89 277 0 270 -2 278 89 l4 56 -282 0 -282
0 4 -56z m518 -7 c0 -45 -11 -47 -240 -47 -229 0 -240 2 -240 47 l0 23 240 0
240 0 0 -23z"/>
</g>
</svg>
